<mxfile host="app.diagrams.net" agent="Mozilla/5.0 (Windows NT 10.0; Win64; x64) AppleWebKit/537.36 (KHTML, like Gecko) Chrome/128.0.0.0 Safari/537.36" version="24.7.7">
  <diagram name="페이지-1" id="1B9asisQg2-xYx33AxE_">
    <mxGraphModel dx="795" dy="1737" grid="1" gridSize="10" guides="1" tooltips="1" connect="1" arrows="1" fold="1" page="1" pageScale="1" pageWidth="827" pageHeight="1169" math="0" shadow="0">
      <root>
        <mxCell id="0" />
        <mxCell id="1" parent="0" />
        <mxCell id="ClAR077de1utCEiu4uLQ-87" style="edgeStyle=orthogonalEdgeStyle;rounded=0;orthogonalLoop=1;jettySize=auto;html=1;exitX=0.145;exitY=1;exitDx=0;exitDy=-4.35;exitPerimeter=0;entryX=1;entryY=0.5;entryDx=0;entryDy=0;" parent="1" source="ClAR077de1utCEiu4uLQ-3" target="ClAR077de1utCEiu4uLQ-73" edge="1">
          <mxGeometry relative="1" as="geometry">
            <Array as="points">
              <mxPoint x="1169" y="760" />
            </Array>
          </mxGeometry>
        </mxCell>
        <mxCell id="ClAR077de1utCEiu4uLQ-89" style="edgeStyle=orthogonalEdgeStyle;rounded=0;orthogonalLoop=1;jettySize=auto;html=1;exitX=0.5;exitY=1;exitDx=0;exitDy=0;exitPerimeter=0;entryX=0.701;entryY=1.028;entryDx=0;entryDy=0;entryPerimeter=0;" parent="1" source="ClAR077de1utCEiu4uLQ-3" target="ClAR077de1utCEiu4uLQ-82" edge="1">
          <mxGeometry relative="1" as="geometry">
            <mxPoint x="410.0000000000002" y="980" as="targetPoint" />
            <Array as="points">
              <mxPoint x="1190" y="960" />
              <mxPoint x="392" y="960" />
            </Array>
          </mxGeometry>
        </mxCell>
        <mxCell id="ClAR077de1utCEiu4uLQ-90" style="edgeStyle=orthogonalEdgeStyle;rounded=0;orthogonalLoop=1;jettySize=auto;html=1;exitX=0;exitY=0.5;exitDx=0;exitDy=0;exitPerimeter=0;entryX=1;entryY=0.5;entryDx=0;entryDy=0;" parent="1" source="ClAR077de1utCEiu4uLQ-3" target="ClAR077de1utCEiu4uLQ-70" edge="1">
          <mxGeometry relative="1" as="geometry" />
        </mxCell>
        <mxCell id="ClAR077de1utCEiu4uLQ-3" value="중고차 DB" style="shape=cylinder3;whiteSpace=wrap;html=1;boundedLbl=1;backgroundOutline=1;size=15;" parent="1" vertex="1">
          <mxGeometry x="1160" y="20" width="60" height="80" as="geometry" />
        </mxCell>
        <mxCell id="ClAR077de1utCEiu4uLQ-88" style="edgeStyle=orthogonalEdgeStyle;rounded=0;orthogonalLoop=1;jettySize=auto;html=1;exitX=1;exitY=0;exitDx=0;exitDy=27.5;exitPerimeter=0;entryX=0.25;entryY=1;entryDx=0;entryDy=0;" parent="1" source="ClAR077de1utCEiu4uLQ-4" target="ClAR077de1utCEiu4uLQ-82" edge="1">
          <mxGeometry relative="1" as="geometry">
            <mxPoint x="340" y="1020" as="targetPoint" />
            <Array as="points">
              <mxPoint x="1610" y="48" />
              <mxPoint x="1610" y="980" />
              <mxPoint x="275" y="980" />
            </Array>
          </mxGeometry>
        </mxCell>
        <mxCell id="ClAR077de1utCEiu4uLQ-4" value="회원 DB" style="shape=cylinder3;whiteSpace=wrap;html=1;boundedLbl=1;backgroundOutline=1;size=15;" parent="1" vertex="1">
          <mxGeometry x="1400" y="20" width="60" height="80" as="geometry" />
        </mxCell>
        <mxCell id="ClAR077de1utCEiu4uLQ-27" value="메인 페이지 /" style="swimlane;whiteSpace=wrap;html=1;" parent="1" vertex="1">
          <mxGeometry x="690" width="280" height="530" as="geometry" />
        </mxCell>
        <mxCell id="ClAR077de1utCEiu4uLQ-15" value="중고차를 등록한다" style="ellipse;whiteSpace=wrap;html=1;" parent="ClAR077de1utCEiu4uLQ-27" vertex="1">
          <mxGeometry x="150" y="250" width="120" height="80" as="geometry" />
        </mxCell>
        <mxCell id="ClAR077de1utCEiu4uLQ-91" value="GET" style="edgeStyle=orthogonalEdgeStyle;rounded=0;orthogonalLoop=1;jettySize=auto;html=1;exitX=0;exitY=0.5;exitDx=0;exitDy=0;entryX=0;entryY=0.25;entryDx=0;entryDy=0;" parent="ClAR077de1utCEiu4uLQ-27" source="ClAR077de1utCEiu4uLQ-16" target="ClAR077de1utCEiu4uLQ-27" edge="1">
          <mxGeometry relative="1" as="geometry">
            <Array as="points">
              <mxPoint x="-110" y="290" />
              <mxPoint x="-110" y="133" />
            </Array>
          </mxGeometry>
        </mxCell>
        <mxCell id="ClAR077de1utCEiu4uLQ-16" value="중고차를 검색한다" style="ellipse;whiteSpace=wrap;html=1;" parent="ClAR077de1utCEiu4uLQ-27" vertex="1">
          <mxGeometry x="10" y="250" width="120" height="80" as="geometry" />
        </mxCell>
        <mxCell id="ClAR077de1utCEiu4uLQ-17" value="중고차의&lt;div&gt;상세 정보를&lt;div&gt;확인한다&lt;/div&gt;&lt;/div&gt;" style="ellipse;whiteSpace=wrap;html=1;" parent="ClAR077de1utCEiu4uLQ-27" vertex="1">
          <mxGeometry x="150" y="437" width="120" height="80" as="geometry" />
        </mxCell>
        <mxCell id="ClAR077de1utCEiu4uLQ-14" value="&lt;div&gt;세션이 없는 경우&lt;/div&gt;로그인 한다" style="ellipse;whiteSpace=wrap;html=1;" parent="ClAR077de1utCEiu4uLQ-27" vertex="1">
          <mxGeometry x="10" y="437" width="120" height="80" as="geometry" />
        </mxCell>
        <mxCell id="ClAR077de1utCEiu4uLQ-70" value="GET - 중고차 DB에서 중고차 목록을&lt;div&gt;검색 조건에 맞게 가져온 후&lt;/div&gt;&lt;div&gt;페이지를 불러온다&lt;/div&gt;" style="rounded=0;whiteSpace=wrap;html=1;" parent="ClAR077de1utCEiu4uLQ-27" vertex="1">
          <mxGeometry x="10" y="30" width="260" height="60" as="geometry" />
        </mxCell>
        <mxCell id="ClAR077de1utCEiu4uLQ-108" value="세션이 있는 경우&lt;div&gt;마이페이지로&lt;div&gt;이동한다&lt;/div&gt;&lt;/div&gt;" style="ellipse;whiteSpace=wrap;html=1;" parent="ClAR077de1utCEiu4uLQ-27" vertex="1">
          <mxGeometry x="10" y="350" width="120" height="80" as="geometry" />
        </mxCell>
        <mxCell id="ClAR077de1utCEiu4uLQ-144" value="GET" style="edgeStyle=orthogonalEdgeStyle;rounded=0;orthogonalLoop=1;jettySize=auto;html=1;exitX=1;exitY=0.5;exitDx=0;exitDy=0;entryX=1;entryY=0.5;entryDx=0;entryDy=0;" parent="ClAR077de1utCEiu4uLQ-27" source="ClAR077de1utCEiu4uLQ-119" target="ClAR077de1utCEiu4uLQ-27" edge="1">
          <mxGeometry relative="1" as="geometry">
            <Array as="points">
              <mxPoint x="360" y="130" />
              <mxPoint x="360" y="265" />
            </Array>
          </mxGeometry>
        </mxCell>
        <mxCell id="ClAR077de1utCEiu4uLQ-119" value="DELETE - 회원 정보를 회원 DB에서 제거하고&lt;div&gt;세션 제거 후&lt;/div&gt;&lt;div&gt;메인 페이지로 리다이렉트&lt;/div&gt;" style="rounded=0;whiteSpace=wrap;html=1;" parent="ClAR077de1utCEiu4uLQ-27" vertex="1">
          <mxGeometry x="10" y="100" width="260" height="60" as="geometry" />
        </mxCell>
        <mxCell id="ClAR077de1utCEiu4uLQ-28" value="상세 페이지 /detail" style="swimlane;whiteSpace=wrap;html=1;" parent="1" vertex="1">
          <mxGeometry x="620" y="690" width="460" height="210" as="geometry" />
        </mxCell>
        <mxCell id="ClAR077de1utCEiu4uLQ-98" value="POST" style="edgeStyle=orthogonalEdgeStyle;rounded=0;orthogonalLoop=1;jettySize=auto;html=1;exitX=0.5;exitY=1;exitDx=0;exitDy=0;entryX=0.5;entryY=1;entryDx=0;entryDy=0;" parent="ClAR077de1utCEiu4uLQ-28" source="ClAR077de1utCEiu4uLQ-20" target="ClAR077de1utCEiu4uLQ-28" edge="1">
          <mxGeometry relative="1" as="geometry">
            <Array as="points">
              <mxPoint x="70" y="250" />
              <mxPoint x="230" y="250" />
            </Array>
          </mxGeometry>
        </mxCell>
        <mxCell id="ClAR077de1utCEiu4uLQ-20" value="중고차를&lt;div&gt;위시리스트에&lt;/div&gt;&lt;div&gt;등록한다&lt;/div&gt;" style="ellipse;whiteSpace=wrap;html=1;" parent="ClAR077de1utCEiu4uLQ-28" vertex="1">
          <mxGeometry x="10" y="120" width="120" height="80" as="geometry" />
        </mxCell>
        <mxCell id="ClAR077de1utCEiu4uLQ-73" value="GET - 선택한 중고차의 정보를&lt;div&gt;중고차 DB에서 가져와&lt;/div&gt;&lt;div&gt;페이지를 불러온다&lt;/div&gt;" style="rounded=0;whiteSpace=wrap;html=1;" parent="ClAR077de1utCEiu4uLQ-28" vertex="1">
          <mxGeometry x="10" y="40" width="170" height="60" as="geometry" />
        </mxCell>
        <mxCell id="ClAR077de1utCEiu4uLQ-97" value="POST - 회원 DB에&lt;div&gt;중고차의 번호를 등록&lt;/div&gt;" style="rounded=0;whiteSpace=wrap;html=1;" parent="ClAR077de1utCEiu4uLQ-28" vertex="1">
          <mxGeometry x="270" y="130" width="170" height="60" as="geometry" />
        </mxCell>
        <mxCell id="ClAR077de1utCEiu4uLQ-29" value="마이 페이지 /mypage" style="swimlane;whiteSpace=wrap;html=1;" parent="1" vertex="1">
          <mxGeometry x="200" y="600" width="280" height="330" as="geometry">
            <mxRectangle x="200" y="680" width="100" height="30" as="alternateBounds" />
          </mxGeometry>
        </mxCell>
        <mxCell id="ClAR077de1utCEiu4uLQ-25" value="회원탈퇴한다" style="ellipse;whiteSpace=wrap;html=1;" parent="ClAR077de1utCEiu4uLQ-29" vertex="1">
          <mxGeometry x="10" y="30" width="120" height="80" as="geometry" />
        </mxCell>
        <mxCell id="ClAR077de1utCEiu4uLQ-80" value="중고차의&lt;div&gt;상세 정보를&lt;div&gt;확인한다&lt;/div&gt;&lt;/div&gt;" style="ellipse;whiteSpace=wrap;html=1;" parent="ClAR077de1utCEiu4uLQ-29" vertex="1">
          <mxGeometry x="150" y="30" width="120" height="80" as="geometry" />
        </mxCell>
        <mxCell id="ClAR077de1utCEiu4uLQ-82" value="GET - 세션에 있는 로그인 정보를 바탕으로&lt;div&gt;위시리스트와 내가 등록한 중고차 목록을&lt;div&gt;회원 DB와 중고차 DB에서 가져와&lt;/div&gt;&lt;/div&gt;&lt;div&gt;페이지를 불러온다&lt;/div&gt;" style="rounded=0;whiteSpace=wrap;html=1;" parent="ClAR077de1utCEiu4uLQ-29" vertex="1">
          <mxGeometry x="10" y="230" width="260" height="80" as="geometry" />
        </mxCell>
        <mxCell id="ClAR077de1utCEiu4uLQ-128" value="로그아웃한다" style="ellipse;whiteSpace=wrap;html=1;" parent="ClAR077de1utCEiu4uLQ-29" vertex="1">
          <mxGeometry x="10" y="130" width="120" height="80" as="geometry" />
        </mxCell>
        <mxCell id="ClAR077de1utCEiu4uLQ-30" value="로그인 페이지 /login" style="swimlane;whiteSpace=wrap;html=1;" parent="1" vertex="1">
          <mxGeometry x="200" y="320" width="280" height="210" as="geometry" />
        </mxCell>
        <mxCell id="ClAR077de1utCEiu4uLQ-24" value="회원가입한다" style="ellipse;whiteSpace=wrap;html=1;" parent="ClAR077de1utCEiu4uLQ-30" vertex="1">
          <mxGeometry x="10" y="30" width="120" height="80" as="geometry" />
        </mxCell>
        <mxCell id="ClAR077de1utCEiu4uLQ-113" value="POST" style="edgeStyle=orthogonalEdgeStyle;rounded=0;orthogonalLoop=1;jettySize=auto;html=1;exitX=0.5;exitY=0;exitDx=0;exitDy=0;" parent="ClAR077de1utCEiu4uLQ-30" source="ClAR077de1utCEiu4uLQ-44" edge="1">
          <mxGeometry relative="1" as="geometry">
            <mxPoint x="210" y="-110" as="targetPoint" />
          </mxGeometry>
        </mxCell>
        <mxCell id="ClAR077de1utCEiu4uLQ-44" value="로그인을&lt;div&gt;완료한다&lt;/div&gt;" style="ellipse;whiteSpace=wrap;html=1;" parent="ClAR077de1utCEiu4uLQ-30" vertex="1">
          <mxGeometry x="150" y="30" width="120" height="80" as="geometry" />
        </mxCell>
        <mxCell id="ClAR077de1utCEiu4uLQ-102" value="GET - 페이지를&lt;div&gt;불러온다&lt;/div&gt;" style="rounded=0;whiteSpace=wrap;html=1;" parent="ClAR077de1utCEiu4uLQ-30" vertex="1">
          <mxGeometry x="10" y="140" width="120" height="60" as="geometry" />
        </mxCell>
        <mxCell id="RrGPPv-r7N0fcj1O49Q0-2" value="" style="edgeStyle=orthogonalEdgeStyle;rounded=0;orthogonalLoop=1;jettySize=auto;html=1;" edge="1" parent="ClAR077de1utCEiu4uLQ-30" source="RrGPPv-r7N0fcj1O49Q0-1" target="ClAR077de1utCEiu4uLQ-44">
          <mxGeometry relative="1" as="geometry" />
        </mxCell>
        <mxCell id="RrGPPv-r7N0fcj1O49Q0-1" value="ID&lt;div&gt;PW&lt;/div&gt;" style="shape=document;whiteSpace=wrap;html=1;boundedLbl=1;" vertex="1" parent="ClAR077de1utCEiu4uLQ-30">
          <mxGeometry x="150" y="140" width="120" height="60" as="geometry" />
        </mxCell>
        <mxCell id="ClAR077de1utCEiu4uLQ-31" value="등록 페이지 /add" style="swimlane;whiteSpace=wrap;html=1;" parent="1" vertex="1">
          <mxGeometry x="1220" y="450" width="330" height="350" as="geometry" />
        </mxCell>
        <mxCell id="ClAR077de1utCEiu4uLQ-76" style="edgeStyle=orthogonalEdgeStyle;rounded=0;orthogonalLoop=1;jettySize=auto;html=1;exitX=1;exitY=0.25;exitDx=0;exitDy=0;entryX=0;entryY=0.5;entryDx=0;entryDy=0;" parent="ClAR077de1utCEiu4uLQ-31" source="ClAR077de1utCEiu4uLQ-66" target="ClAR077de1utCEiu4uLQ-75" edge="1">
          <mxGeometry relative="1" as="geometry" />
        </mxCell>
        <mxCell id="ClAR077de1utCEiu4uLQ-66" value="&lt;div&gt;﻿&lt;span data-input-buffer=&quot;INPUT_BUFFER_DATA;Mozilla%2F5.0%20(Windows%20NT%2010.0%3B%20Win64%3B%20x64)%20AppleWebKit%2F537.36%20(KHTML%2C%20like%20Gecko)%20Chrome%2F127.0.0.0%20Safari%2F537.36;blog.naver.com&quot;&gt;&lt;/span&gt;이름&lt;/div&gt;&lt;div&gt;연식&lt;/div&gt;&lt;div&gt;사고이력&lt;/div&gt;&lt;div&gt;가격&lt;/div&gt;&lt;div&gt;제조사&lt;/div&gt;&lt;div&gt;일련번호&lt;/div&gt;&lt;div&gt;번호판&lt;br&gt;&lt;/div&gt;" style="shape=document;whiteSpace=wrap;html=1;boundedLbl=1;" parent="ClAR077de1utCEiu4uLQ-31" vertex="1">
          <mxGeometry x="20" y="40" width="120" height="160" as="geometry" />
        </mxCell>
        <mxCell id="ClAR077de1utCEiu4uLQ-94" value="POST" style="edgeStyle=orthogonalEdgeStyle;rounded=0;orthogonalLoop=1;jettySize=auto;html=1;exitX=0.5;exitY=0;exitDx=0;exitDy=0;entryX=0.5;entryY=0;entryDx=0;entryDy=0;" parent="ClAR077de1utCEiu4uLQ-31" source="ClAR077de1utCEiu4uLQ-75" target="ClAR077de1utCEiu4uLQ-31" edge="1">
          <mxGeometry x="0.1915" relative="1" as="geometry">
            <Array as="points">
              <mxPoint x="240" y="-60" />
              <mxPoint x="165" y="-60" />
            </Array>
            <mxPoint as="offset" />
          </mxGeometry>
        </mxCell>
        <mxCell id="ClAR077de1utCEiu4uLQ-75" value="등록을 완료한다" style="ellipse;whiteSpace=wrap;html=1;" parent="ClAR077de1utCEiu4uLQ-31" vertex="1">
          <mxGeometry x="180" y="40" width="120" height="80" as="geometry" />
        </mxCell>
        <mxCell id="ClAR077de1utCEiu4uLQ-92" value="POST - 입력한 정보를&lt;div&gt;중고차 DB에 등록한 후&lt;/div&gt;&lt;div&gt;메인 페이지로 리다이렉트&lt;/div&gt;" style="rounded=0;whiteSpace=wrap;html=1;" parent="ClAR077de1utCEiu4uLQ-31" vertex="1">
          <mxGeometry x="160" y="134" width="160" height="60" as="geometry" />
        </mxCell>
        <mxCell id="ClAR077de1utCEiu4uLQ-93" style="edgeStyle=orthogonalEdgeStyle;rounded=0;orthogonalLoop=1;jettySize=auto;html=1;exitX=0.5;exitY=1;exitDx=0;exitDy=0;" parent="ClAR077de1utCEiu4uLQ-31" source="ClAR077de1utCEiu4uLQ-92" target="ClAR077de1utCEiu4uLQ-92" edge="1">
          <mxGeometry relative="1" as="geometry" />
        </mxCell>
        <mxCell id="ClAR077de1utCEiu4uLQ-101" value="GET - 페이지를&lt;div&gt;불러온다&lt;/div&gt;" style="rounded=0;whiteSpace=wrap;html=1;" parent="ClAR077de1utCEiu4uLQ-31" vertex="1">
          <mxGeometry x="20" y="250" width="120" height="60" as="geometry" />
        </mxCell>
        <mxCell id="ClAR077de1utCEiu4uLQ-36" style="edgeStyle=orthogonalEdgeStyle;rounded=0;orthogonalLoop=1;jettySize=auto;html=1;exitX=0;exitY=0.5;exitDx=0;exitDy=0;entryX=1;entryY=0.75;entryDx=0;entryDy=0;" parent="1" source="ClAR077de1utCEiu4uLQ-14" target="ClAR077de1utCEiu4uLQ-30" edge="1">
          <mxGeometry relative="1" as="geometry" />
        </mxCell>
        <mxCell id="ClAR077de1utCEiu4uLQ-83" value="GET" style="edgeLabel;html=1;align=center;verticalAlign=middle;resizable=0;points=[];" parent="ClAR077de1utCEiu4uLQ-36" vertex="1" connectable="0">
          <mxGeometry x="-0.2184" y="1" relative="1" as="geometry">
            <mxPoint as="offset" />
          </mxGeometry>
        </mxCell>
        <mxCell id="ClAR077de1utCEiu4uLQ-37" value="회원가입 페이지 /register" style="swimlane;whiteSpace=wrap;html=1;" parent="1" vertex="1">
          <mxGeometry x="185" y="-180" width="350" height="210" as="geometry" />
        </mxCell>
        <mxCell id="ClAR077de1utCEiu4uLQ-42" style="edgeStyle=orthogonalEdgeStyle;rounded=0;orthogonalLoop=1;jettySize=auto;html=1;exitX=1;exitY=0.5;exitDx=0;exitDy=0;entryX=0;entryY=0.5;entryDx=0;entryDy=0;" parent="ClAR077de1utCEiu4uLQ-37" source="ClAR077de1utCEiu4uLQ-39" target="ClAR077de1utCEiu4uLQ-40" edge="1">
          <mxGeometry relative="1" as="geometry">
            <Array as="points">
              <mxPoint x="130" y="70" />
            </Array>
          </mxGeometry>
        </mxCell>
        <mxCell id="ClAR077de1utCEiu4uLQ-39" value="ID&lt;div&gt;PW&lt;/div&gt;&lt;div&gt;이름&lt;/div&gt;&lt;div&gt;관심품목&lt;/div&gt;" style="shape=document;whiteSpace=wrap;html=1;boundedLbl=1;" parent="ClAR077de1utCEiu4uLQ-37" vertex="1">
          <mxGeometry x="10" y="30" width="120" height="100" as="geometry" />
        </mxCell>
        <mxCell id="ClAR077de1utCEiu4uLQ-100" value="POST" style="edgeStyle=orthogonalEdgeStyle;rounded=0;orthogonalLoop=1;jettySize=auto;html=1;exitX=1;exitY=0.5;exitDx=0;exitDy=0;entryX=1;entryY=0.5;entryDx=0;entryDy=0;" parent="ClAR077de1utCEiu4uLQ-37" source="ClAR077de1utCEiu4uLQ-40" target="ClAR077de1utCEiu4uLQ-37" edge="1">
          <mxGeometry x="0.0594" relative="1" as="geometry">
            <Array as="points">
              <mxPoint x="410" y="70" />
              <mxPoint x="410" y="105" />
            </Array>
            <mxPoint y="-1" as="offset" />
          </mxGeometry>
        </mxCell>
        <mxCell id="ClAR077de1utCEiu4uLQ-40" value="회원가입을&lt;div&gt;완료한다&lt;/div&gt;" style="ellipse;whiteSpace=wrap;html=1;" parent="ClAR077de1utCEiu4uLQ-37" vertex="1">
          <mxGeometry x="190" y="30" width="120" height="80" as="geometry" />
        </mxCell>
        <mxCell id="ClAR077de1utCEiu4uLQ-103" value="GET - 페이지를&lt;div&gt;불러온다&lt;/div&gt;" style="rounded=0;whiteSpace=wrap;html=1;" parent="ClAR077de1utCEiu4uLQ-37" vertex="1">
          <mxGeometry x="10" y="140" width="120" height="60" as="geometry" />
        </mxCell>
        <mxCell id="ClAR077de1utCEiu4uLQ-106" value="POST - 입력한&lt;div&gt;정보를 회원 DB에&lt;/div&gt;&lt;div&gt;저장한 후 로그인 페이지로&lt;/div&gt;&lt;div&gt;리다이렉트&lt;/div&gt;" style="rounded=0;whiteSpace=wrap;html=1;" parent="ClAR077de1utCEiu4uLQ-37" vertex="1">
          <mxGeometry x="150" y="140" width="190" height="60" as="geometry" />
        </mxCell>
        <mxCell id="ClAR077de1utCEiu4uLQ-38" value="GET" style="edgeStyle=orthogonalEdgeStyle;rounded=0;orthogonalLoop=1;jettySize=auto;html=1;exitX=0.5;exitY=0;exitDx=0;exitDy=0;entryX=0.25;entryY=1;entryDx=0;entryDy=0;" parent="1" source="ClAR077de1utCEiu4uLQ-24" target="ClAR077de1utCEiu4uLQ-37" edge="1">
          <mxGeometry relative="1" as="geometry" />
        </mxCell>
        <mxCell id="ClAR077de1utCEiu4uLQ-48" value="GET" style="edgeStyle=orthogonalEdgeStyle;rounded=0;orthogonalLoop=1;jettySize=auto;html=1;exitX=1;exitY=0.5;exitDx=0;exitDy=0;entryX=0.25;entryY=0;entryDx=0;entryDy=0;" parent="1" source="ClAR077de1utCEiu4uLQ-15" target="ClAR077de1utCEiu4uLQ-31" edge="1">
          <mxGeometry x="0.1192" relative="1" as="geometry">
            <mxPoint x="1070" y="290" as="sourcePoint" />
            <mxPoint as="offset" />
          </mxGeometry>
        </mxCell>
        <mxCell id="ClAR077de1utCEiu4uLQ-95" style="edgeStyle=orthogonalEdgeStyle;rounded=0;orthogonalLoop=1;jettySize=auto;html=1;exitX=1;exitY=0.5;exitDx=0;exitDy=0;entryX=0.855;entryY=1;entryDx=0;entryDy=-4.35;entryPerimeter=0;" parent="1" source="ClAR077de1utCEiu4uLQ-92" target="ClAR077de1utCEiu4uLQ-3" edge="1">
          <mxGeometry relative="1" as="geometry">
            <Array as="points">
              <mxPoint x="1580" y="614" />
              <mxPoint x="1580" y="160" />
              <mxPoint x="1211" y="160" />
            </Array>
          </mxGeometry>
        </mxCell>
        <mxCell id="ClAR077de1utCEiu4uLQ-96" value="GET" style="edgeStyle=orthogonalEdgeStyle;rounded=0;orthogonalLoop=1;jettySize=auto;html=1;exitX=0.5;exitY=1;exitDx=0;exitDy=0;entryX=0.607;entryY=0;entryDx=0;entryDy=0;entryPerimeter=0;" parent="1" source="ClAR077de1utCEiu4uLQ-17" target="ClAR077de1utCEiu4uLQ-28" edge="1">
          <mxGeometry relative="1" as="geometry">
            <Array as="points">
              <mxPoint x="900" y="691" />
            </Array>
          </mxGeometry>
        </mxCell>
        <mxCell id="ClAR077de1utCEiu4uLQ-99" style="edgeStyle=orthogonalEdgeStyle;rounded=0;orthogonalLoop=1;jettySize=auto;html=1;exitX=1;exitY=0.5;exitDx=0;exitDy=0;entryX=0.145;entryY=0;entryDx=0;entryDy=4.35;entryPerimeter=0;" parent="1" source="ClAR077de1utCEiu4uLQ-97" target="ClAR077de1utCEiu4uLQ-4" edge="1">
          <mxGeometry relative="1" as="geometry">
            <mxPoint x="1120" y="-131.66656494140625" as="targetPoint" />
            <Array as="points">
              <mxPoint x="1120" y="850" />
              <mxPoint x="1120" y="-30" />
              <mxPoint x="1409" y="-30" />
            </Array>
          </mxGeometry>
        </mxCell>
        <mxCell id="ClAR077de1utCEiu4uLQ-107" style="edgeStyle=orthogonalEdgeStyle;rounded=0;orthogonalLoop=1;jettySize=auto;html=1;exitX=1;exitY=0.5;exitDx=0;exitDy=0;entryX=0;entryY=0.5;entryDx=0;entryDy=0;entryPerimeter=0;" parent="1" source="ClAR077de1utCEiu4uLQ-106" target="ClAR077de1utCEiu4uLQ-4" edge="1">
          <mxGeometry relative="1" as="geometry">
            <Array as="points">
              <mxPoint x="1340" y="-10" />
              <mxPoint x="1340" y="60" />
            </Array>
          </mxGeometry>
        </mxCell>
        <mxCell id="ClAR077de1utCEiu4uLQ-112" value="로그인 완료 페이지 /confirm" style="swimlane;whiteSpace=wrap;html=1;" parent="1" vertex="1">
          <mxGeometry x="340" y="80" width="200" height="130" as="geometry" />
        </mxCell>
        <mxCell id="ClAR077de1utCEiu4uLQ-114" value="POST - 입력한 로그인&lt;div&gt;정보를 바탕으로&lt;div&gt;세션을 생성한 후&lt;/div&gt;&lt;/div&gt;&lt;div&gt;메인 페이지로 리다이렉트&lt;/div&gt;" style="rounded=0;whiteSpace=wrap;html=1;" parent="ClAR077de1utCEiu4uLQ-112" vertex="1">
          <mxGeometry x="20" y="30" width="160" height="90" as="geometry" />
        </mxCell>
        <mxCell id="ClAR077de1utCEiu4uLQ-117" value="GET" style="edgeStyle=orthogonalEdgeStyle;rounded=0;orthogonalLoop=1;jettySize=auto;html=1;exitX=1;exitY=0.5;exitDx=0;exitDy=0;entryX=0;entryY=0.5;entryDx=0;entryDy=0;" parent="1" source="ClAR077de1utCEiu4uLQ-114" target="ClAR077de1utCEiu4uLQ-27" edge="1">
          <mxGeometry x="0.25" relative="1" as="geometry">
            <Array as="points">
              <mxPoint x="650" y="155" />
              <mxPoint x="650" y="265" />
            </Array>
            <mxPoint as="offset" />
          </mxGeometry>
        </mxCell>
        <mxCell id="ClAR077de1utCEiu4uLQ-118" value="GET" style="edgeStyle=orthogonalEdgeStyle;rounded=0;orthogonalLoop=1;jettySize=auto;html=1;exitX=0;exitY=0.5;exitDx=0;exitDy=0;entryX=0.75;entryY=0;entryDx=0;entryDy=0;" parent="1" source="ClAR077de1utCEiu4uLQ-108" target="ClAR077de1utCEiu4uLQ-29" edge="1">
          <mxGeometry relative="1" as="geometry">
            <Array as="points">
              <mxPoint x="570" y="390" />
              <mxPoint x="570" y="570" />
              <mxPoint x="410" y="570" />
            </Array>
          </mxGeometry>
        </mxCell>
        <mxCell id="ClAR077de1utCEiu4uLQ-120" style="edgeStyle=orthogonalEdgeStyle;rounded=0;orthogonalLoop=1;jettySize=auto;html=1;exitX=0.5;exitY=1;exitDx=0;exitDy=0;entryX=0.5;entryY=1;entryDx=0;entryDy=0;entryPerimeter=0;" parent="1" source="ClAR077de1utCEiu4uLQ-119" target="ClAR077de1utCEiu4uLQ-4" edge="1">
          <mxGeometry relative="1" as="geometry">
            <Array as="points">
              <mxPoint x="830" y="210" />
              <mxPoint x="1430" y="210" />
            </Array>
          </mxGeometry>
        </mxCell>
        <mxCell id="ClAR077de1utCEiu4uLQ-121" value="DELETE" style="edgeStyle=orthogonalEdgeStyle;rounded=0;orthogonalLoop=1;jettySize=auto;html=1;exitX=0.5;exitY=0;exitDx=0;exitDy=0;entryX=0.25;entryY=1;entryDx=0;entryDy=0;" parent="1" source="ClAR077de1utCEiu4uLQ-25" target="ClAR077de1utCEiu4uLQ-27" edge="1">
          <mxGeometry relative="1" as="geometry" />
        </mxCell>
        <mxCell id="ClAR077de1utCEiu4uLQ-124" value="로그아웃 페이지 /logout" style="swimlane;whiteSpace=wrap;html=1;" parent="1" vertex="1">
          <mxGeometry x="280" y="1000" width="220" height="121" as="geometry" />
        </mxCell>
        <mxCell id="ClAR077de1utCEiu4uLQ-126" value="GET" style="edgeStyle=orthogonalEdgeStyle;rounded=0;orthogonalLoop=1;jettySize=auto;html=1;exitX=1;exitY=0.5;exitDx=0;exitDy=0;" parent="ClAR077de1utCEiu4uLQ-124" source="ClAR077de1utCEiu4uLQ-125" edge="1">
          <mxGeometry relative="1" as="geometry">
            <mxPoint x="410" y="-629" as="targetPoint" />
            <Array as="points">
              <mxPoint x="310" y="75" />
              <mxPoint x="310" y="-629" />
            </Array>
          </mxGeometry>
        </mxCell>
        <mxCell id="ClAR077de1utCEiu4uLQ-125" value="GET - 세션을 제거 후&lt;div&gt;메인 페이지로 리다이렉트&lt;/div&gt;" style="rounded=0;whiteSpace=wrap;html=1;" parent="ClAR077de1utCEiu4uLQ-124" vertex="1">
          <mxGeometry x="10" y="41" width="200" height="69" as="geometry" />
        </mxCell>
        <mxCell id="ClAR077de1utCEiu4uLQ-85" value="GET" style="edgeStyle=orthogonalEdgeStyle;rounded=0;orthogonalLoop=1;jettySize=auto;html=1;exitX=1;exitY=0.5;exitDx=0;exitDy=0;entryX=0;entryY=0.5;entryDx=0;entryDy=0;" parent="1" source="ClAR077de1utCEiu4uLQ-80" target="ClAR077de1utCEiu4uLQ-28" edge="1">
          <mxGeometry relative="1" as="geometry">
            <mxPoint x="620" y="670" as="targetPoint" />
          </mxGeometry>
        </mxCell>
        <mxCell id="ClAR077de1utCEiu4uLQ-129" value="GET" style="edgeStyle=orthogonalEdgeStyle;rounded=0;orthogonalLoop=1;jettySize=auto;html=1;exitX=0;exitY=0.5;exitDx=0;exitDy=0;entryX=0;entryY=0.5;entryDx=0;entryDy=0;" parent="1" source="ClAR077de1utCEiu4uLQ-128" target="ClAR077de1utCEiu4uLQ-124" edge="1">
          <mxGeometry x="-0.1314" relative="1" as="geometry">
            <Array as="points">
              <mxPoint x="160" y="770" />
              <mxPoint x="160" y="1061" />
            </Array>
            <mxPoint as="offset" />
          </mxGeometry>
        </mxCell>
        <mxCell id="ClAR077de1utCEiu4uLQ-130" value="페이지" style="swimlane;whiteSpace=wrap;html=1;" parent="1" vertex="1">
          <mxGeometry x="225" y="-330" width="130" height="80" as="geometry" />
        </mxCell>
        <mxCell id="ClAR077de1utCEiu4uLQ-133" value="ejs 파일로 렌더링되는 페이지" style="text;html=1;align=center;verticalAlign=middle;whiteSpace=wrap;rounded=0;" parent="1" vertex="1">
          <mxGeometry x="200" y="-240" width="180" height="30" as="geometry" />
        </mxCell>
        <mxCell id="ClAR077de1utCEiu4uLQ-134" value="" style="rounded=0;whiteSpace=wrap;html=1;" parent="1" vertex="1">
          <mxGeometry x="415" y="-320" width="120" height="60" as="geometry" />
        </mxCell>
        <mxCell id="ClAR077de1utCEiu4uLQ-135" value="접속 방식에 따라 server.js가 달리 실행하는 명령" style="text;html=1;align=center;verticalAlign=middle;whiteSpace=wrap;rounded=0;" parent="1" vertex="1">
          <mxGeometry x="391.5" y="-240" width="167" height="30" as="geometry" />
        </mxCell>
        <mxCell id="ClAR077de1utCEiu4uLQ-136" value="" style="ellipse;whiteSpace=wrap;html=1;" parent="1" vertex="1">
          <mxGeometry x="623.75" y="-330" width="120" height="80" as="geometry" />
        </mxCell>
        <mxCell id="ClAR077de1utCEiu4uLQ-137" value="사용자가 페이지에서 내릴 수 있는&lt;div&gt;(주로 버튼에 할당된)명령&lt;/div&gt;" style="text;html=1;align=center;verticalAlign=middle;whiteSpace=wrap;rounded=0;" parent="1" vertex="1">
          <mxGeometry x="587.5" y="-230" width="192.5" height="30" as="geometry" />
        </mxCell>
        <mxCell id="ClAR077de1utCEiu4uLQ-138" value="" style="shape=document;whiteSpace=wrap;html=1;boundedLbl=1;" parent="1" vertex="1">
          <mxGeometry x="825" y="-330" width="120" height="80" as="geometry" />
        </mxCell>
        <mxCell id="ClAR077de1utCEiu4uLQ-139" value="필요에 따라 사용자가 페이지(form)에 입력하는 데이터" style="text;html=1;align=center;verticalAlign=middle;whiteSpace=wrap;rounded=0;" parent="1" vertex="1">
          <mxGeometry x="800" y="-240" width="170" height="30" as="geometry" />
        </mxCell>
        <mxCell id="ClAR077de1utCEiu4uLQ-140" value="" style="shape=cylinder3;whiteSpace=wrap;html=1;boundedLbl=1;backgroundOutline=1;size=15;" parent="1" vertex="1">
          <mxGeometry x="1010" y="-330" width="60" height="80" as="geometry" />
        </mxCell>
        <mxCell id="ClAR077de1utCEiu4uLQ-141" value="DB" style="text;html=1;align=center;verticalAlign=middle;whiteSpace=wrap;rounded=0;" parent="1" vertex="1">
          <mxGeometry x="1010" y="-240" width="60" height="30" as="geometry" />
        </mxCell>
        <mxCell id="ClAR077de1utCEiu4uLQ-142" value="GET" style="edgeStyle=orthogonalEdgeStyle;rounded=0;orthogonalLoop=1;jettySize=auto;html=1;exitX=0.5;exitY=1;exitDx=0;exitDy=0;entryX=1;entryY=0.75;entryDx=0;entryDy=0;" parent="1" source="ClAR077de1utCEiu4uLQ-92" target="ClAR077de1utCEiu4uLQ-27" edge="1">
          <mxGeometry relative="1" as="geometry">
            <Array as="points">
              <mxPoint x="1460" y="664" />
              <mxPoint x="1060" y="664" />
              <mxPoint x="1060" y="398" />
            </Array>
          </mxGeometry>
        </mxCell>
        <mxCell id="ClAR077de1utCEiu4uLQ-143" value="GET" style="edgeStyle=orthogonalEdgeStyle;rounded=0;orthogonalLoop=1;jettySize=auto;html=1;exitX=0.5;exitY=1;exitDx=0;exitDy=0;entryX=0;entryY=0.5;entryDx=0;entryDy=0;" parent="1" source="ClAR077de1utCEiu4uLQ-106" target="ClAR077de1utCEiu4uLQ-30" edge="1">
          <mxGeometry x="0.2444" relative="1" as="geometry">
            <Array as="points">
              <mxPoint x="430" y="50" />
              <mxPoint x="180" y="50" />
              <mxPoint x="180" y="425" />
            </Array>
            <mxPoint as="offset" />
          </mxGeometry>
        </mxCell>
      </root>
    </mxGraphModel>
  </diagram>
</mxfile>
